<?xml version="1.0" encoding="iso-8859-1"?>
<!-- Generator: Adobe Illustrator 17.1.0, SVG Export Plug-In . SVG Version: 6.00 Build 0)  -->
<!DOCTYPE svg PUBLIC "-//W3C//DTD SVG 1.1//EN" "http://www.w3.org/Graphics/SVG/1.1/DTD/svg11.dtd">
<svg version="1.1" id="Capa_1" xmlns="http://www.w3.org/2000/svg" xmlns:xlink="http://www.w3.org/1999/xlink" x="0px" y="0px"
	 viewBox="0 0 432.733 432.733" style="enable-background:new 0 0 432.733 432.733;" xml:space="preserve">
<g>
	<path style="fill:none;" d="M328.304,348.022c-0.771-0.391-1.533-0.801-2.292-1.225c0,0-0.001,0-0.002,0
		C326.77,347.223,327.533,347.63,328.304,348.022z"/>
	<path style="fill:none;" d="M329.52,348.619c3.464,1.649,7.228,2.919,12.041,3.586C336.747,351.538,332.99,350.266,329.52,348.619z
		"/>
	<path style="fill:none;" d="M106.715,346.796c-0.757,0.423-1.516,0.831-2.285,1.222c0.769-0.391,1.529-0.797,2.287-1.221
		C106.717,346.796,106.716,346.796,106.715,346.796z"/>
	<path style="fill:none;" d="M103.298,348.575c0.367-0.176,0.733-0.354,1.095-0.539C104.031,348.22,103.666,348.399,103.298,348.575
		z"/>
	<path style="fill:none;" d="M328.33,348.036c0.363,0.185,0.731,0.365,1.101,0.541C329.061,348.4,328.694,348.22,328.33,348.036z"/>
	<path style="fill:none;" d="M231.076,236.149l12.517-26.842c-2.963,1.214-6.002,2.254-9.121,3.067
		c-6.216,1.62-12.595,2.426-19.064,2.426c-7.609,0-15.344-1.136-23.092-3.346c-1.566,8.852-4.235,18.671-7.546,29.661
		C197.973,247.805,214.526,246.05,231.076,236.149z"/>
	<path style="fill:none;" d="M218.608,262.886c-5.652,1.426-11.271,2.155-16.762,2.155c-8.096,0.001-15.908-1.565-23.143-4.698
		c-2.083,6.152-4.253,11.929-6.565,17.288h39.594L218.608,262.886z"/>
	<path style="fill:#B4F0DF;" d="M143.276,186.202c0.78-5.468,5.845-9.27,11.313-8.486c5.468,0.78,9.267,5.845,8.486,11.313
		c-1.945,13.629,0.123,26.288,5.518,36.124c4.033-14.505,6.206-26.017,4.894-34.574c-1.2-7.824-5.384-16.022-27.674-22.978
		c-7.713-2.409-14.047-3.58-19.367-3.58c-17.705,0-24.863,13.89-38.754,58.498c-8.444,27.025-10.566,44.293-6.68,55.112h69.006
		c3.736-7.194,7.521-16.628,11.47-28.947C146.615,233.958,139.727,211.062,143.276,186.202z"/>
	<path style="fill:#F19C7D;" d="M162.91,125.92c2.054,0.334,4.139,0.504,6.197,0.504c18.709,0,34.477-13.445,37.491-31.97
		c3.371-20.712-10.741-40.306-31.458-43.678c-2.035-0.331-4.103-0.499-6.145-0.499c-18.44,0-34.581,13.733-37.545,31.945
		c-1.636,10.049,0.737,20.127,6.684,28.378C144.076,118.846,152.875,124.286,162.91,125.92z"/>
	<path d="M159.697,145.66c3.112,0.507,6.278,0.764,9.41,0.764c28.563,0,52.633-20.505,57.231-48.757
		c5.143-31.597-16.383-61.487-47.985-66.631c-3.094-0.504-6.242-0.759-9.357-0.759c-13.627,0-26.907,4.865-37.396,13.7
		c-10.604,8.932-17.667,21.373-19.89,35.032c-2.495,15.324,1.127,30.696,10.197,43.283
		C130.972,134.87,144.392,143.169,159.697,145.66z M131.451,82.223c2.964-18.212,19.105-31.945,37.545-31.945
		c2.042,0,4.109,0.168,6.145,0.499c20.717,3.372,34.829,22.966,31.458,43.678c-3.015,18.524-18.782,31.97-37.491,31.97
		c-2.059,0-4.144-0.17-6.197-0.504c-10.035-1.634-18.834-7.074-24.775-15.319C132.189,102.35,129.815,92.271,131.451,82.223z"/>
	<path style="fill:#F7CF40;" d="M322.737,344.894c0.208,0.124,0.414,0.246,0.62,0.368
		C323.151,345.14,322.945,345.019,322.737,344.894z"/>
	<path style="fill:#F7CF40;" d="M324.011,345.648c0.251,0.148,0.503,0.294,0.753,0.439
		C324.513,345.942,324.262,345.796,324.011,345.648z"/>
	<path style="fill:#F7CF40;" d="M107.955,346.09c0.253-0.146,0.507-0.294,0.761-0.444
		C108.462,345.796,108.208,345.943,107.955,346.09z"/>
	<path style="fill:#F7CF40;" d="M109.364,345.264c0.205-0.122,0.411-0.244,0.618-0.367
		C109.775,345.02,109.57,345.142,109.364,345.264z"/>
	<path style="fill:#F7CF40;" d="M172.397,336.276c6.302-3.845,12.101-6.558,15.777-8.124l14.232-30.521H33.028
		c3.593,3.636,8.958,8.087,16.825,13.14c17.938,11.523,42.285,21.787,68.893,29.094c-0.001,0-0.002,0.001-0.003,0.002
		c7.44-3.859,16.679-7.135,30.95-7.135C159.164,332.733,166.412,334.179,172.397,336.276z"/>
	<path style="fill:#F7CF40;" d="M326.012,346.797c-0.269-0.15-0.537-0.303-0.806-0.457c0.268,0.153,0.536,0.308,0.804,0.457
		C326.01,346.797,326.011,346.797,326.012,346.797z"/>
	<path style="fill:#F7CF40;" d="M107.525,346.336c-0.27,0.155-0.54,0.308-0.81,0.459c0.001,0,0.001,0,0.002,0
		C106.986,346.646,107.256,346.49,107.525,346.336z"/>
	<path style="fill:#F7CF40;" d="M244.548,344.157c8.925-5.355,19.041-11.425,38.478-11.425c14.279,0,23.521,3.278,30.962,7.139
		c-0.003-0.001-0.005-0.003-0.008-0.004c26.61-7.307,50.959-17.571,68.898-29.095c7.867-5.053,13.233-9.504,16.826-13.141H224.475
		l-18.173,38.973c1.083,3.558,2.585,9.169,3.68,15.813c1.947,0.2,4.047,0.315,6.377,0.315
		C230.256,352.733,236.563,348.948,244.548,344.157z"/>
	<path style="fill:#6ECCAE;" d="M172.397,336.276c-5.985-2.097-13.233-3.544-22.704-3.544c-14.271,0-23.51,3.276-30.95,7.135
		c-2.692,1.397-5.155,2.867-7.527,4.29c-0.416,0.25-0.827,0.496-1.235,0.739c-0.207,0.124-0.413,0.245-0.618,0.367
		c-0.216,0.128-0.433,0.256-0.648,0.382c-0.254,0.149-0.508,0.297-0.761,0.444c-0.143,0.083-0.287,0.165-0.43,0.247
		c-0.269,0.154-0.539,0.309-0.808,0.46c-0.757,0.424-1.518,0.83-2.287,1.221c-0.012,0.006-0.025,0.013-0.037,0.019
		c-0.362,0.184-0.728,0.363-1.095,0.539c-0.032,0.015-0.063,0.03-0.095,0.045c-5.202,2.476-11.05,4.112-20.172,4.112
		c-13.896,0-20.203-3.784-28.188-8.575c-8.925-5.355-19.041-11.425-38.477-11.425c-5.522,0-10,4.477-10,10c0,5.522,4.477,10,10,10
		c13.897,0,20.202,3.784,28.187,8.575c8.926,5.354,19.042,11.425,38.479,11.425c19.436,0,29.551-6.07,38.477-11.425
		c7.983-4.791,14.29-8.575,28.185-8.575c0.916,0,1.795,0.018,2.647,0.051c0.755-0.964,1.475-1.811,2.147-2.505
		C159.999,344.582,166.424,339.921,172.397,336.276z"/>
	<path style="fill:#6ECCAE;" d="M341.561,352.206c-4.813-0.668-8.577-1.938-12.041-3.586c-0.03-0.014-0.06-0.028-0.09-0.043
		c-0.369-0.176-0.737-0.356-1.101-0.541c-0.009-0.004-0.017-0.009-0.026-0.013c-0.771-0.392-1.534-0.799-2.294-1.225
		c-0.268-0.15-0.536-0.304-0.804-0.457c-0.147-0.084-0.295-0.168-0.442-0.253c-0.25-0.145-0.502-0.291-0.753-0.439
		c-0.217-0.127-0.435-0.256-0.654-0.386c-0.206-0.122-0.413-0.244-0.62-0.368c-0.407-0.243-0.817-0.488-1.231-0.737
		c-2.369-1.421-4.829-2.891-7.518-4.286c-7.442-3.862-16.684-7.139-30.962-7.139c-19.436,0-29.553,6.069-38.478,11.425
		c-7.985,4.791-14.292,8.575-28.189,8.575c-2.33,0-4.43-0.115-6.377-0.315c1.004,6.097,1.653,13.063,1.316,20.153
		c1.622,0.096,3.29,0.162,5.061,0.162c19.437,0,29.554-6.07,38.479-11.425c7.985-4.791,14.292-8.575,28.189-8.575
		c13.898,0,20.206,3.784,28.191,8.575c8.926,5.355,19.042,11.425,38.479,11.425s29.554-6.069,38.479-11.425
		c7.985-4.791,14.293-8.575,28.19-8.575c5.523,0,10-4.478,10-10c0-5.523-4.477-10-10-10c-19.438,0-29.554,6.069-38.479,11.425
		c-7.985,4.791-14.293,8.575-28.19,8.575c-3.05,0-5.718-0.191-8.134-0.527l0,0L341.561,352.206z"/>
	<path style="fill:#7A4D33;" d="M307.613,95.665c6.181-3.186,14.118-8.036,20.258-14.381c3.602-3.721,14.379-22.469,24.685-44.446
		c0.848-1.809,1.21-3.282,0.971-3.944c-0.345-0.949-2.268-3.68-12.661-8.527C334.651,21.47,330.108,20,327.362,20
		c-1.103,0-1.975,0-3.564,3.429c-10.212,22.024-17.646,42.331-18.181,47.478C304.738,79.357,306.036,88.579,307.613,95.665z"/>
	<path style="fill:#7A4D33;" d="M191.113,374.564c0.913-8.779-0.472-17.974-2.004-24.755c-6.178,3.185-14.112,8.034-20.25,14.378
		c-2.687,2.776-9.387,13.95-16.902,28.59c13.969,0.355,22.937,3.93,30.258,7.927C187.68,387.27,190.786,377.706,191.113,374.564z"/>
	<path d="M211.298,372.571c0.337-7.09-0.312-14.056-1.316-20.153c-1.095-6.644-2.597-12.255-3.68-15.813l18.173-38.973h175.229
		c-3.593,3.637-8.959,8.088-16.826,13.141c-17.94,11.523-42.288,21.788-68.898,29.095c0.003,0.002,0.005,0.003,0.008,0.004
		c2.689,1.395,5.149,2.864,7.518,4.286c0.415,0.249,0.824,0.494,1.231,0.737c0.208,0.124,0.414,0.246,0.62,0.368
		c0.218,0.129,0.436,0.258,0.654,0.386c0.251,0.148,0.502,0.294,0.753,0.439c0.147,0.085,0.295,0.169,0.442,0.253
		c0.269,0.153,0.537,0.307,0.806,0.457c0.76,0.424,1.521,0.834,2.292,1.225c0.009,0.004,0.017,0.009,0.026,0.013
		c0.364,0.185,0.731,0.365,1.101,0.541c0.03,0.014,0.06,0.028,0.09,0.043c3.47,1.646,7.227,2.919,12.041,3.586l0.001,0l0,0
		c19.797-6.94,37.764-15.381,52.125-24.605c14.908-9.576,32.68-24.283,32.68-39.969c0-5.522-4.477-10-10-10H233.801l14.178-30.405
		c0.042-0.091,0.088-0.179,0.127-0.271l33.472-71.782l0-0.001l26.978-57.854c7.162-3.05,22.359-10.42,33.688-22.126
		c7.717-7.975,21.495-35.096,28.419-49.864c3.236-6.9,3.796-13.378,1.664-19.255c-3.502-9.654-13.597-15.443-23.009-19.833
		C340.063,1.925,333.291,0,327.362,0c-6.727,0-15.953,2.605-21.709,15.016c-6.862,14.799-18.781,42.79-19.929,53.821
		c-1.686,16.205,2.438,32.585,4.704,40.03l-26.775,57.419c-15.174,25.56-41.718,34.523-70.005,24.634
		c-0.097-1.142-0.223-2.268-0.393-3.373c-3.767-24.564-25.481-34.044-41.481-39.036c-9.669-3.021-17.954-4.489-25.328-4.489
		c-35.257,0-45.727,33.621-57.847,72.543c-8.625,27.604-11.316,46.519-8.326,61.067H16.366c-2.652,0-5.195,1.054-7.071,2.929
		c-1.875,1.876-2.929,4.419-2.929,7.071c0,15.685,17.771,30.392,32.678,39.968c14.36,9.224,32.327,17.666,52.125,24.605
		c4.811-0.668,8.566-1.939,12.034-3.585c0.032-0.015,0.063-0.03,0.095-0.045c0.368-0.176,0.733-0.355,1.095-0.539
		c0.012-0.006,0.025-0.013,0.037-0.019c0.769-0.39,1.527-0.798,2.285-1.222c0.27-0.151,0.54-0.305,0.81-0.459
		c0.143-0.082,0.287-0.164,0.43-0.247c0.253-0.146,0.507-0.294,0.761-0.444c0.215-0.126,0.432-0.254,0.648-0.382
		c0.206-0.122,0.411-0.243,0.618-0.367c0.408-0.244,0.819-0.49,1.235-0.739c2.371-1.423,4.835-2.894,7.527-4.29
		c0.001,0,0.002-0.001,0.003-0.002c-26.609-7.307-50.955-17.571-68.893-29.094c-7.867-5.053-13.232-9.504-16.825-13.14h169.378
		l-14.232,30.521c-3.676,1.566-9.475,4.279-15.777,8.124c-5.973,3.645-12.398,8.306-17.91,14.002
		c-0.672,0.694-1.392,1.541-2.147,2.505c-7.145,9.119-17.646,29.375-24.263,43.128c5.774-1.896,12.709-3.179,21.615-3.179
		c0.778,0,1.516,0.025,2.264,0.044c7.516-14.64,14.215-25.814,16.902-28.59c6.138-6.344,14.072-11.193,20.25-14.378
		c1.532,6.781,2.917,15.976,2.004,24.755c-0.327,3.143-3.433,12.707-8.898,26.141c2.089,1.14,4.053,2.312,5.955,3.453
		c3.958,2.375,7.506,4.5,11.768,6.042c4.532-10.99,10.29-26.087,11.068-33.566C211.147,375.278,211.234,373.923,211.298,372.571z
		 M327.362,20c2.746,0,7.289,1.47,13.503,4.366c10.394,4.848,12.316,7.578,12.661,8.527c0.239,0.662-0.123,2.136-0.971,3.944
		c-10.306,21.978-21.083,40.726-24.685,44.446c-6.14,6.345-14.077,11.195-20.258,14.381c-1.577-7.086-2.875-16.308-1.996-24.759
		c0.535-5.146,7.969-25.453,18.181-47.478C325.388,20,326.259,20,327.362,20z M81.013,277.632
		c-3.886-10.819-1.765-28.087,6.68-55.112c13.891-44.608,21.049-58.498,38.754-58.498c5.32,0,11.654,1.171,19.367,3.58
		c22.29,6.955,26.474,15.153,27.674,22.978c1.313,8.557-0.861,20.068-4.894,34.574c-5.395-9.836-7.463-22.496-5.518-36.124
		c0.78-5.468-3.019-10.532-8.486-11.313c-5.468-0.783-10.532,3.019-11.313,8.486c-3.549,24.859,3.339,47.756,18.212,62.483
		c-3.949,12.319-7.735,21.752-11.47,28.947H81.013z M178.704,260.344c7.235,3.133,15.047,4.698,23.143,4.698
		c5.49-0.001,11.11-0.729,16.762-2.155l-6.876,14.746h-39.594C174.451,272.273,176.621,266.495,178.704,260.344z M192.316,211.453
		c7.748,2.21,15.483,3.346,23.092,3.346c6.469,0,12.848-0.806,19.064-2.426c3.119-0.813,6.158-1.853,9.121-3.067l-12.517,26.842
		c-16.55,9.901-33.104,11.656-46.307,4.965C188.081,230.124,190.749,220.305,192.316,211.453z"/>
	<path style="fill:#6ECCAE;" d="M188.17,404.157c-1.902-1.141-3.866-2.313-5.955-3.453c-7.321-3.997-16.289-7.573-30.258-7.927
		c-0.748-0.019-1.486-0.044-2.264-0.044c-8.906,0-15.841,1.282-21.615,3.179c-6.827,2.242-12.026,5.345-16.861,8.246
		c-7.983,4.791-14.29,8.575-28.186,8.575c-13.896,0-20.203-3.784-28.188-8.575c-8.925-5.355-19.041-11.425-38.477-11.425
		c-5.522,0-10,4.477-10,10c0,5.522,4.477,10,10,10c13.897,0,20.202,3.784,28.187,8.575c8.926,5.354,19.042,11.425,38.479,11.425
		c19.436,0,29.551-6.07,38.477-11.425c7.983-4.791,14.29-8.575,28.185-8.575c13.896,0,20.202,3.784,28.187,8.575
		c8.926,5.354,19.042,11.425,38.479,11.425s29.554-6.07,38.479-11.425c7.985-4.791,14.292-8.575,28.189-8.575
		c13.898,0,20.206,3.784,28.191,8.575c8.926,5.355,19.042,11.425,38.479,11.425s29.554-6.069,38.479-11.425
		c7.985-4.791,14.293-8.575,28.19-8.575c5.523,0,10-4.478,10-10c0-5.523-4.477-10-10-10c-19.438,0-29.554,6.069-38.479,11.425
		c-7.985,4.791-14.293,8.575-28.19,8.575c-13.897,0-20.205-3.784-28.19-8.575c-8.926-5.355-19.043-11.425-38.48-11.425
		c-19.436,0-29.553,6.069-38.478,11.425c-7.985,4.791-14.292,8.575-28.189,8.575c-7.009,0-12.084-0.964-16.421-2.533
		C195.676,408.658,192.128,406.532,188.17,404.157z"/>
</g>
<g>
</g>
<g>
</g>
<g>
</g>
<g>
</g>
<g>
</g>
<g>
</g>
<g>
</g>
<g>
</g>
<g>
</g>
<g>
</g>
<g>
</g>
<g>
</g>
<g>
</g>
<g>
</g>
<g>
</g>
</svg>
