<?xml version="1.0" encoding="iso-8859-1"?>
<!-- Generator: Adobe Illustrator 18.0.0, SVG Export Plug-In . SVG Version: 6.00 Build 0)  -->
<!DOCTYPE svg PUBLIC "-//W3C//DTD SVG 1.1//EN" "http://www.w3.org/Graphics/SVG/1.1/DTD/svg11.dtd">
<svg version="1.1" id="Capa_1" xmlns="http://www.w3.org/2000/svg" xmlns:xlink="http://www.w3.org/1999/xlink" x="0px" y="0px"
	 viewBox="0 0 297.5 297.5" style="enable-background:new 0 0 297.5 297.5;" xml:space="preserve">
<g>
	<g id="XMLID_18_">
		<g>
			<path style="fill:#E98547;" d="M62.24,20.58h7.81c-1.98,2.22-3.8,4.6-5.44,7.1L62.24,20.58z"/>
			<path style="fill:#E98547;" d="M205.66,144.56c0,3.07-0.26,6.08-0.74,9.03l-5.86,3.91l-44.67-29.78c-3.41-2.28-7.86-2.28-11.27,0
				L98.45,157.5l-5.88-3.92c-0.47-2.94-0.73-5.95-0.73-9.02c0-9.31,2.26-18.1,6.24-25.86c5.44,1.61,11.18,2.48,17.14,2.48
				c22.36,0,41.91-12.2,52.37-30.3C189.74,98.67,205.66,119.78,205.66,144.56z"/>
			<path style="fill:#DEC978;" d="M115.22,20.58c22.13,0,40.14,18,40.14,40.14c0,22.13-18.01,40.14-40.14,40.14
				c-22.14,0-40.15-18.01-40.15-40.14C75.07,38.58,93.08,20.58,115.22,20.58z M125.38,43.95c0-2.67-1.08-5.3-2.98-7.19
				c-1.89-1.89-4.5-2.97-7.19-2.97c-2.67,0-5.29,1.08-7.18,2.97c-1.89,1.89-2.98,4.52-2.98,7.19c0,2.67,1.09,5.29,2.98,7.18
				s4.51,2.98,7.18,2.98c2.69,0,5.3-1.09,7.19-2.98C124.3,49.24,125.38,46.62,125.38,43.95z"/>
			<path style="fill:#BCBDB8;" d="M239.2,155.16v31.32c0,49.87-40.57,90.44-90.45,90.44c-49.87,0-90.44-40.57-90.44-90.44v-31.32
				l34.5,23.01c3.42,2.27,7.86,2.27,11.28,0l44.66-29.78l44.67,29.78c3.41,2.27,7.86,2.27,11.27,0L239.2,155.16z"/>
			<path d="M259.52,136.17v50.31c0,61.08-49.69,110.77-110.77,110.77S37.98,247.56,37.98,186.48v-50.31c0-3.74,2.06-7.19,5.37-8.96
				c3.3-1.77,7.31-1.57,10.43,0.51l17.9,11.93c0.68-10.71,3.55-20.83,8.18-29.93C65.11,99.05,58.19,81.63,54.79,62.5
				C52.55,49.82,38.5,13.63,38.5,13.63c-1.03-3.1-0.51-6.51,1.4-9.16s4.98-4.22,8.24-4.22c0,0,50.31,0,67.08,0
				c33.34,0,60.46,27.13,60.46,60.47c0,3.79-0.36,7.5-1.04,11.1c28.42,10.14,49.2,36.47,51.18,67.84l17.91-11.94
				c3.11-2.08,7.12-2.28,10.43-0.51C257.46,128.98,259.52,132.43,259.52,136.17z M239.2,186.48v-31.32l-34.51,23.01
				c-3.41,2.27-7.86,2.27-11.27,0l-44.67-29.78l-44.66,29.78c-3.42,2.27-7.86,2.27-11.28,0l-34.5-23.01v31.32
				c0,49.87,40.57,90.44,90.44,90.44C198.63,276.92,239.2,236.35,239.2,186.48z M204.92,153.59c0.48-2.95,0.74-5.96,0.74-9.03
				c0-24.78-15.92-45.89-38.07-53.68c-10.46,18.1-30.01,30.3-52.37,30.3c-5.96,0-11.7-0.87-17.14-2.48
				c-3.98,7.76-6.24,16.55-6.24,25.86c0,3.07,0.26,6.08,0.73,9.02l5.88,3.92l44.67-29.78c3.41-2.28,7.86-2.28,11.27,0l44.67,29.78
				L204.92,153.59z M155.36,60.72c0-22.14-18.01-40.14-40.14-40.14c-22.14,0-40.15,18-40.15,40.14c0,22.13,18.01,40.14,40.15,40.14
				C137.35,100.86,155.36,82.85,155.36,60.72z M70.05,20.58h-7.81l2.37,7.1C66.25,25.18,68.07,22.8,70.05,20.58z"/>
			<path d="M122.4,36.76c1.9,1.89,2.98,4.52,2.98,7.19c0,2.67-1.08,5.29-2.98,7.18c-1.89,1.89-4.5,2.98-7.19,2.98
				c-2.67,0-5.29-1.09-7.18-2.98s-2.98-4.51-2.98-7.18c0-2.67,1.09-5.3,2.98-7.19c1.89-1.89,4.51-2.97,7.18-2.97
				C117.9,33.79,120.51,34.87,122.4,36.76z"/>
		</g>
		<g>
		</g>
	</g>
</g>
<g>
</g>
<g>
</g>
<g>
</g>
<g>
</g>
<g>
</g>
<g>
</g>
<g>
</g>
<g>
</g>
<g>
</g>
<g>
</g>
<g>
</g>
<g>
</g>
<g>
</g>
<g>
</g>
<g>
</g>
</svg>
