<?xml version="1.0" encoding="iso-8859-1"?>
<!-- Generator: Adobe Illustrator 16.0.0, SVG Export Plug-In . SVG Version: 6.00 Build 0)  -->
<!DOCTYPE svg PUBLIC "-//W3C//DTD SVG 1.1//EN" "http://www.w3.org/Graphics/SVG/1.1/DTD/svg11.dtd">
<svg xmlns="http://www.w3.org/2000/svg" xmlns:xlink="http://www.w3.org/1999/xlink" version="1.1" id="Capa_1" x="0px" y="0px" width="512px" height="512px" viewBox="0 0 31.273 31.273" style="enable-background:new 0 0 31.273 31.273;" xml:space="preserve">
<g>
	<path d="M21.479,8.699H9.93l-0.95,4.307h13.448L21.479,8.699z M14.376,12.412l0.192-0.878h2.269l0.192,0.878H14.376z M21.449,5.784   V1.609h-4.334h-2.821H9.96v4.175v2.644h11.489V5.784z M20.631,7.744h-9.854V2.426h3.69h2.473h3.691V7.744z M0.95,25.357L0,29.664   h13.448l-0.95-4.308L0.95,25.357L0.95,25.357z M5.397,29.07l0.193-0.877h2.268l0.193,0.877H5.397z M12.469,22.441v-4.174H8.135   H5.314H0.98v4.174v2.645h11.489V22.441z M1.797,24.403v-5.317h3.689h2.475h3.688v5.317H1.797z M30.324,25.357H18.773l-0.948,4.307   h13.448L30.324,25.357z M23.223,29.07l0.192-0.877h2.269l0.193,0.877H23.223z M18.807,22.441v2.645h11.486v-2.645v-4.174H25.96   h-2.821h-4.332V22.441z M19.623,19.084h3.688h2.476h3.688v5.318h-9.853L19.623,19.084L19.623,19.084z M17.927,21.584l-0.415-0.471   l0.471-0.416l0.416,0.473L17.927,21.584z M16.572,19.099l0.707,0.8l-0.473,0.417L16.1,19.515L16.572,19.099z M13.157,20.698   l0.472,0.416l-0.416,0.472l-0.472-0.416L13.157,20.698z M14.57,19.098l0.472,0.416l-0.706,0.8l-0.472-0.416L14.57,19.098z    M15.256,15.327h0.627v1.067h-0.627V15.327z M15.256,17.463h0.628v0.979v0.118l-0.136,0.153l-0.179-0.154l-0.177,0.154   l-0.137-0.153v-0.118L15.256,17.463L15.256,17.463z M15.883,14.259h-0.627v-0.628h0.627V14.259z" fill="#006DF0"/>
</g>
<g>
</g>
<g>
</g>
<g>
</g>
<g>
</g>
<g>
</g>
<g>
</g>
<g>
</g>
<g>
</g>
<g>
</g>
<g>
</g>
<g>
</g>
<g>
</g>
<g>
</g>
<g>
</g>
<g>
</g>
</svg>
