<?xml version="1.0" encoding="iso-8859-1"?>
<!-- Generator: Adobe Illustrator 18.0.0, SVG Export Plug-In . SVG Version: 6.00 Build 0)  -->
<!DOCTYPE svg PUBLIC "-//W3C//DTD SVG 1.1//EN" "http://www.w3.org/Graphics/SVG/1.1/DTD/svg11.dtd">
<svg xmlns="http://www.w3.org/2000/svg" xmlns:xlink="http://www.w3.org/1999/xlink" version="1.1" id="Capa_1" x="0px" y="0px" viewBox="0 0 365.696 365.696" style="enable-background:new 0 0 365.696 365.696;" xml:space="preserve" width="512px" height="512px">
<g>
	<path d="M346.949,265.36h-4.094V73.404c0-5.832-4.724-10.556-10.556-10.556H33.397c-5.831,0-10.558,4.724-10.558,10.556V265.36   h-4.092C8.393,265.36,0,273.752,0,284.102c0,10.354,8.393,18.746,18.747,18.746h328.201c10.355,0,18.747-8.392,18.747-18.746   C365.696,273.752,357.304,265.36,346.949,265.36z M43.288,83.296h279.12V265.36H43.288V83.296z M192.742,289.547h-19.788   c-3.007,0-5.443-2.438-5.443-5.445c0-3.004,2.436-5.44,5.443-5.44h19.788c3.007,0,5.444,2.436,5.444,5.44   C198.186,287.109,195.749,289.547,192.742,289.547z" fill="#006DF0"/>
	<path d="M136.933,142.171c-3.421-1.162-7.14,0.668-8.304,4.09l-10.259,30.174l-8.85-28.071c-0.859-2.723-3.383-4.575-6.239-4.577   c-0.001,0-0.002,0-0.004,0c-2.854,0-5.378,1.848-6.24,4.569l-8.967,28.319L77.5,146.222c-1.185-3.416-4.916-5.224-8.329-4.038   c-3.416,1.185-5.223,4.915-4.038,8.33l17.038,49.091c0.925,2.665,3.447,4.426,6.273,4.399c2.82-0.039,5.299-1.88,6.15-4.569   l8.668-27.377l8.629,27.369c0.851,2.699,3.34,4.545,6.17,4.577c0.025,0.001,0.049,0.001,0.074,0.001c2.8,0,5.294-1.783,6.197-4.438   l16.691-49.091C142.187,147.053,140.356,143.335,136.933,142.171z" fill="#006DF0"/>
	<path d="M216.71,142.171c-3.422-1.164-7.141,0.667-8.304,4.09l-10.26,30.173l-8.848-28.069c-0.858-2.723-3.383-4.576-6.238-4.577   c-0.001,0-0.003,0-0.004,0c-2.854,0-5.378,1.848-6.24,4.569l-8.97,28.321l-10.57-30.455c-1.186-3.416-4.916-5.224-8.33-4.038   c-3.415,1.185-5.223,4.915-4.038,8.33l17.038,49.091c0.915,2.637,3.399,4.399,6.182,4.399c0.031,0,0.061,0,0.091-0.001   c2.82-0.039,5.299-1.88,6.15-4.569l8.671-27.377l8.627,27.369c0.851,2.699,3.34,4.545,6.169,4.577   c0.024,0.001,0.049,0.001,0.074,0.001c2.799,0,5.293-1.782,6.196-4.438l16.691-49.091   C221.964,147.053,220.133,143.335,216.71,142.171z" fill="#006DF0"/>
	<path d="M296.486,142.171c-3.424-1.162-7.14,0.668-8.304,4.09l-10.257,30.173l-8.85-28.07c-0.859-2.723-3.383-4.575-6.238-4.577   c-0.002,0-0.003,0-0.004,0c-2.853,0-5.378,1.848-6.24,4.569l-8.968,28.32l-10.57-30.455c-1.186-3.416-4.916-5.224-8.33-4.038   c-3.415,1.185-5.222,4.915-4.037,8.33l17.037,49.091c0.915,2.636,3.399,4.399,6.183,4.399c0.03,0,0.061,0,0.09-0.001   c2.821-0.039,5.299-1.88,6.151-4.569l8.67-27.378l8.629,27.371c0.851,2.699,3.34,4.545,6.17,4.577   c0.024,0.001,0.049,0.001,0.073,0.001c2.8,0,5.294-1.783,6.197-4.438l16.689-49.091   C301.74,147.052,299.909,143.334,296.486,142.171z" fill="#006DF0"/>
</g>
<g>
</g>
<g>
</g>
<g>
</g>
<g>
</g>
<g>
</g>
<g>
</g>
<g>
</g>
<g>
</g>
<g>
</g>
<g>
</g>
<g>
</g>
<g>
</g>
<g>
</g>
<g>
</g>
<g>
</g>
</svg>
